<svg width="21" height="16" viewBox="0 0 21 16" fill="none" xmlns="http://www.w3.org/2000/svg">
<path fill-rule="evenodd" clip-rule="evenodd" d="M18.1908 4.34903C18.8008 4.34903 19.2008 4.55903 19.6008 5.01903C20.0008 5.47903 20.0708 6.13903 19.9808 6.73803L19.0308 13.298C18.8508 14.559 17.7708 15.488 16.5008 15.488H5.5908C4.2608 15.488 3.1608 14.468 3.0508 13.149L2.1308 2.24803L0.620803 1.98803C0.220803 1.91803 -0.0591968 1.52803 0.0108032 1.12803C0.0808032 0.718025 0.470803 0.448025 0.880803 0.508025L3.2658 0.868025C3.6058 0.929025 3.8558 1.20803 3.8858 1.54803L4.0758 3.78803C4.1058 4.10903 4.3658 4.34903 4.6858 4.34903H18.1908ZM12.1308 9.54803H14.9008C15.3208 9.54803 15.6508 9.20802 15.6508 8.79803C15.6508 8.37803 15.3208 8.04803 14.9008 8.04803H12.1308C11.7108 8.04803 11.3808 8.37803 11.3808 8.79803C11.3808 9.20802 11.7108 9.54803 12.1308 9.54803Z" fill="url(#paint0_linear_5055_6)"/>
<defs>
<linearGradient id="paint0_linear_5055_6" x1="6.10068e-05" y1="-0.420641" x2="22.6895" y2="4.27386" gradientUnits="userSpaceOnUse">
<stop stop-color="#FF9300"/>
<stop offset="1" stop-color="#FF9300"/>
</linearGradient>
</defs>
</svg>
